<?xml version="1.0" encoding="UTF-8" standalone="no"?>
<!-- Created with Inkscape (http://www.inkscape.org/) -->

<svg
   xmlns:dc="http://purl.org/dc/elements/1.1/"
   xmlns:cc="http://creativecommons.org/ns#"
   xmlns:rdf="http://www.w3.org/1999/02/22-rdf-syntax-ns#"
   xmlns:svg="http://www.w3.org/2000/svg"
   xmlns="http://www.w3.org/2000/svg"
   xmlns:inkscape="http://www.inkscape.org/namespaces/inkscape"
   version="1.1"
   width="128"
   height="256"
   id="svg2">
  <defs
     id="defs4">
    <inkscape:path-effect
       effect="powerstroke"
       id="path-effect10285" />
  </defs>
  <metadata
     id="metadata7">
    <rdf:RDF>
      <cc:Work
         rdf:about="">
        <dc:format>image/svg+xml</dc:format>
        <dc:type
           rdf:resource="http://purl.org/dc/dcmitype/StillImage" />
        <dc:title></dc:title>
      </cc:Work>
    </rdf:RDF>
  </metadata>
  <g
     transform="translate(-261.29477,-479.20863)"
     id="layer1"
     style="display:inline">
    <path
       d="m 308.35321,717.06248 c 26.79217,-4.69625 17.52838,-31.63976 2.57947,-31.86395 -17.19729,-0.25791 -21.46137,21.55331 -9.71093,32.16741 17.73217,16.01735 53.57252,-0.31638 48.70633,-24.73248 -9.07268,-45.5221 -20.49905,-90.4647 -28.82929,-135.95284 -5.93144,-32.38925 8.65082,-59.27689 18.51144,-58.26549 5.7969,0.59459 16.07574,18.1031 -0.30348,39.60233 -11.10837,14.58079 -21.31411,20.60238 -31.89071,30.4804 -17.04693,15.92097 -34.10359,38.33668 -33.80969,57.22131 0.4663,29.96471 31.33638,47.23478 51.74097,46.12685 54.84865,-2.97816 53.82252,-65.93896 10.16611,-65.24521 -37.35163,0.59355 -41.51853,44.2199 -13.50423,47.49244 -19.70455,-13.14027 -8.72408,-34.31785 14.56636,-33.9882 29.2759,0.41436 27.07456,45.89188 -9.55919,48.70632 -19.4967,1.49786 -43.84716,-14.14465 -40.96792,-38.69193 2.77742,-23.67919 25.47032,-39.65657 41.27363,-52.98044 14.74528,-12.43184 26.6579,-29.31728 26.85452,-50.04632 0.18084,-19.06533 -9.50841,-35.08081 -17.9045,-46.27858 -20.64393,18.31735 -23.59635,49.2735 -19.27011,73.43879 8.30989,46.41688 19.6838,92.14671 29.73968,138.0771 C 351.1296,712.37186 324.0378,726.62083 308.35321,717.06248 Z"
       id="path10298"
       style="fill:#000000;fill-opacity:1;stroke:none;display:inline" />
  </g>
</svg>
